<svg xmlns="http://www.w3.org/2000/svg" fill="none" viewBox="0 0 648 751"><g clip-path="url(#a)"><mask id="b" width="1201" height="1055" x="-279" y="-152" maskUnits="userSpaceOnUse" style="mask-type:luminance"><path fill="#fff" d="M-278.052-151.936h1200V902.583h-1200V-151.936Z"/></mask><g mask="url(#b)"><path fill="#2F2D2E" fill-rule="evenodd" d="M588.396 0H58.771C15.843 0 0 15.841 0 58.79v518.234c0 4.86.196 9.375.625 13.558.978 9.374 1.162 18.458 9.88 28.801.852 1.013 9.754 7.637 9.754 7.637 4.788 2.348 8.057 4.078 13.457 6.251l260.795 109.264c13.538 6.207 19.2 8.625 29.033 8.431v.001h.077v-.001c9.834.194 15.495-2.224 29.035-8.431l260.793-109.264c5.402-2.173 8.67-3.903 13.459-6.251 0 0 8.901-6.624 9.752-7.637 8.719-10.343 8.903-19.427 9.88-28.801.429-4.183.627-8.698.627-13.558V58.79c0-42.948-15.844-58.79-58.771-58.79Z" clip-rule="evenodd"/><path fill="#fff" d="m552.922 521.017-.12 1.196-.119 1.313-.24 1.196-.357 1.195-.232 1.076-.36 1.196-.477 1.076-.479.957-.471 1.075-.597.956-.597.957-.711.956-.599.956-.709.836-.837.837-.711.718-.955.837-.83.717-.956.718-.95.589-.949.717-1.076.598-1.069.478-1.068.598-1.196.478-1.188.479-1.188.357-1.188.36-1.076.358-1.188.24-1.07.238-1.068.239-1.196.24-1.189.119-1.068.12-1.196.12-1.307.12-1.189.118h-4.999l-1.189-.118h-1.307l-1.189-.12-1.195-.12-1.308-.12-1.188-.239-1.188-.12-1.196-.239-1.189-.238-1.188-.24-1.188-.239-1.195-.357-1.069-.24-1.188-.359-1.189-.359-1.075-.478-1.188-.359-1.069-.357-1.19-.479-1.074-.479-1.07-.478-1.069-.59-1.075-.478-1.069-.599-.949-.596-1.076-.599-.95-.597-.956-.597-.949-.718-.949-.717-.956-.717-.951-.718-.836-.717-.949-.836.717-.956.829-.837.718-.958.83-.956.718-.836.709-.956.837-.957.71-.836.837-.956.711-.837.836-.956.71-.958.718-.836.829-.956.717-.957.83-.836.717-.956.949.717 1.07.718.956.717 1.069.717.956.598 1.069.716.948.598 1.078.478.948.598 1.069.479 1.076.477 1.068.479 1.071.359 1.074.477 1.188.359 1.19.358 1.068.359 1.196.24 1.188.239 1.188.238 1.308.12 1.194.239h1.19l1.306.119H520.787l1.308-.119 1.196-.239 1.068-.24 1.07-.238.956-.359.83-.477.956-.718.71-.837.478-.957.36-1.075.118-1.196v-.239l-.118-1.434-.478-1.196-.599-.836-.829-.718-.958-.717-.949-.477-1.068-.479-1.196-.479-1.427-.596-.83-.24-.948-.238-1.076-.36-1.07-.239-1.188-.359-1.196-.238-1.306-.359-1.19-.239-1.308-.358-1.188-.239-1.196-.359-1.186-.24-1.19-.358-1.076-.358-1.186-.24-1.071-.358-1.068-.359-1.076-.359-1.308-.478-1.188-.479-1.189-.477-1.195-.479-1.068-.597-1.189-.598-.956-.597-1.07-.597-.949-.718-.956-.597-.829-.719-.836-.836-.831-.837-.717-.837-.71-.836-.598-.836-.591-.958-.597-1.074-.479-.83-.359-.957-.35-1.076-.359-.956-.24-1.196-.239-1.076-.12-1.195-.118-1.196-.12-1.313V482.771l.12-1.194.118-1.076.12-1.196.239-1.075.24-1.076.359-1.077.238-1.075.471-1.076.479-1.076.477-1.075.592-1.077.596-1.075.711-.957.718-.956.83-.956.836-.836.83-.957.956-.838.83-.597.956-.717.95-.718.948-.597 1.076-.597 1.07-.479 1.068-.597 1.076-.478 1.188-.36 1.188-.477 1.076-.359.949-.24 1.071-.238 1.074-.239 1.188-.239 1.07-.24 1.188-.118 1.196-.12 1.188-.12 1.188-.119h5.118l1.308.119 1.308.12h1.188l1.315.12 1.188.238 1.308.12 1.189.239 1.076.239 1.188.238 1.188.24 1.07.239 1.194.359 1.07.358 1.069.24 1.195.478 1.069.358 1.068.478 1.069.478 1.195.479 1.069.597.95.479 1.076.597 1.069.598.949.598 1.075.718.951.596.956.718.949.718.948.716-.709.957-.598.956-.71.956-.718.957-.709 1.075-.599.956-.717.957-.711.956-.596.956-.712.958-.716.956-.598.956-.71 1.076-.718.956-.71.956-.597.956-.711.956-.956-.716-1.068-.599-.95-.597-.956-.718-1.068-.477-.958-.599-1.068-.478-.949-.478-1.076-.478-.949-.478-1.068-.358-.956-.479-1.31-.357-1.188-.36-1.188-.358-1.196-.24-1.188-.238-1.188-.24-1.188-.12-1.196-.119-1.068-.12h-2.616l-1.308.239-1.196.24-1.068.238-.949.479-.837.477-1.07.958-.717 1.076-.469 1.076-.122 1.194v.24l.122 1.554.589 1.314.479.718.829.837 1.076.597.949.598 1.188.478 1.315.479 1.428.477.949.239.95.359 1.076.238 1.068.359 1.188.24 1.316.359 1.308.357 1.308.36 1.306.239 1.188.358 1.308.359 1.196.239 1.19.358 1.188.359 1.068.359 1.196.358 1.069.359 1.068.359 1.315.47 1.188.599 1.188.477 1.189.598 1.076.598 1.069.598.948.597.956.717.951.598.949.837.956.836.83.957.836.836.71.958.718 1.074.59.956.599 1.078.477.956.359 1.074.352 1.076.239 1.076.238 1.196.239 1.196.12 1.195.12 1.315V519.702l-.12 1.315Zm-83.459 23.901H401.273V457.907h68.782V477.633H423.998V491.857H465.414v18.521H423.998V525.199H470.653V544.918h-1.19Zm-86.952 0h-21.777V493.466l-.596.956-.711 1.084-.598.956-.71.957-.597 1.075-.719.957-.589.956-.599 1.083-.709.956-.599.956-.716.957-.59 1.083-.718.956-.59.956-.599 1.076-.717.963-.591.957-.717 1.075-.59.957-.717.956-.591 1.083-.598.957-.716.956-.591 1.076-.717.963-.591.956-.717.957-.599 1.075-.591.962-.716.958-.59 1.076-.718.956-.597.956-.711 1.084-.597.956h-.472l-.716-1.076-.599-.964-.71-1.076-.598-.956-.71-1.075-.598-.964-.709-1.076-.599-.957-.717-1.075-.591-.956-.717-1.084-.589-.956-.718-1.076-.598-.956-.71-1.083-.598-.956-.71-1.076-.717-.956-.597-1.082-.711-.956-.597-1.076-.711-.956-.597-1.084-.711-.956-.597-1.076-.718-.956-.59-1.076-.718-.964-.59-1.075-.718-.957-.597-1.076-.709-.955-.6-1.084-.71-.956v51.212h-22.613V457.907H317.062l.591.958.597 1.074.709.95.599 1.076.597.956.591 1.077.597.948.712 1.077.596.956.599.956.591 1.068.597.958.711 1.074.597.958.597 1.068.591.956.717.956.599 1.07.589.955.598 1.076.592.957.717 1.068.597.958.59 1.074.598.95.591.956.717 1.076.598.957.59 1.076.598.949.59 1.076.719.956.597 1.068.591.958.597-.958.598-1.068.71-.956.596-1.076.592-.949.598-1.076.71-.957.598-1.076.598-.956.59-.95.717-1.074.591-.958.598-1.068.596-.957.711-1.076.597-.955.599-1.07.589-.956.6-.956.71-1.068.597-.958.597-1.074.592-.958.716-1.068.592-.956.596-.956.599-1.077.709-.948.599-1.077.589-.956.599-1.076.717-.95.591-1.074.597-.958H383.699V544.918h-1.188Zm-138.078-35.855-.359-1.082-.471-1.196-.478-1.076-.359-1.083-.471-1.076-.477-1.196-.36-1.083-.479-1.076-.469-1.074-.36-1.083-.479-1.196-.35-1.076-.479-1.083-.479-1.076-.357-1.076-.472-1.201-.477-1.077-.359-1.075-.479-1.083-.47-1.196-.359-1.082-.479-1.076-.47 1.076-.358 1.082-.478 1.196-.479 1.083-.352 1.075-.477 1.077-.479 1.201-.471 1.076-.36 1.076-.477 1.083-.479 1.076-.352 1.196-.477 1.083-.479 1.074-.357 1.076-.472 1.083-.479 1.196-.477 1.076-.351 1.083-.478 1.076-.479 1.196-.359 1.082-.47 1.076H244.91l-.477-1.076Zm37.373 35.855H258.475l-.472-1.077-.358-1.076-.478-1.076-.478-1.195-.352-1.069-.478-1.075-.478-1.076-.352-1.076-.478-1.076-.478-1.076-.358-1.076-.472-1.195-.478-1.076-.359-1.076-.479-1.076h-34.152l-.47 1.076-.359 1.076-.479 1.076-.477 1.195-.352 1.076-.477 1.076-.479 1.076-.359 1.076-.47 1.076-.479 1.075-.359 1.069-.472 1.195-.477 1.076-.359 1.076-.478 1.077h-24.034l.471-1.077.479-1.076.477-1.076.472-1.195.359-1.069.478-1.075.478-1.076.47-1.076.479-1.076.479-1.196.47-1.076.479-1.075.357-1.076.479-1.076.471-1.076.478-1.194.478-1.076.472-1.078.478-1.074.478-1.076.358-1.076.471-1.196.479-1.075.478-1.076.471-1.076.479-1.076.478-1.076.471-1.196.359-1.075.478-1.076.478-1.076.472-1.076.477-1.076.477-1.194.472-1.076.478-1.076.358-1.076.479-1.075.471-1.076.478-1.196.479-1.076.471-1.076.477-1.076.479-1.075.358-1.077.472-1.068.478-1.196.477-1.075.472-1.077.477-1.076.479-1.075.471-1.076.358-1.196.479-1.074.477-1.076.472-1.076.479-1.076.477-1.076.472-1.196.478-1.075.358-1.076.478-1.076.472-1.076.477-1.076.479-1.195.47-1.076.479-1.076.479-1.076.35-1.074.479-1.078.479-1.194.478-1.076.471-1.076.479-1.076.477-1.076.471-1.075.36-1.196.477-1.076.479-1.076.47-1.076H246.099l.478 1.076.478 1.076.472 1.076.478 1.196.358 1.075.471 1.076.479 1.076.477 1.076.479 1.076.47 1.194.479 1.078.479 1.074.35 1.076.479 1.076.479 1.076.478 1.195.471 1.076.477 1.076.479 1.076.471 1.076.358 1.075.478 1.196.472 1.076.478 1.076.478 1.076.478 1.076.471 1.074.477 1.196.36 1.076.471 1.075.477 1.076.479 1.077.479 1.075.47 1.196.479 1.068.477 1.077.352 1.075.478 1.076.478 1.076.472 1.076.478 1.196.478 1.076.479 1.075.471 1.076.358 1.076.478 1.076.472 1.194.477 1.076.479 1.076.477 1.076.472 1.076.479 1.075.357 1.196.472 1.076.477 1.076.479 1.076.471 1.076.478 1.075.479 1.196.479 1.076.35 1.076.479 1.074.479 1.078.47 1.076.478 1.194.478 1.076.478 1.076.47 1.076.36 1.075.479 1.076.471 1.196.477 1.076.477 1.076.472 1.076.478 1.075.478 1.069.36 1.195.47 1.076.478 1.076.478 1.077h-1.187Zm-104.257-11.112-.956.717-.831.599-.956.717-.949.598-.95.717-.956.597-.949.599-1.076.596-1.069.599-1.07.597-1.074.471-1.07.598-1.188.478-1.068.478-1.196.478-1.068.478-1.07.359-1.075.359-1.069.36-1.188.357-1.068.36-1.196.239-1.07.238-1.188.239-1.194.239-1.19.12-1.308.12-1.188.12-1.308.118-1.196.12-1.306.119h-5.12l-1.188-.119-1.308-.12-1.188-.118-1.188-.12-1.196-.12-1.188-.239-1.19-.24-1.068-.239-1.194-.238-1.07-.359-1.188-.239-1.076-.36-1.069-.477-1.069-.359-1.187-.478-1.076-.478-1.069-.477-1.068-.479-1.078-.597-.948-.592-1.069-.597-.956-.599-.949-.596-.956-.719-.95-.716-.95-.717-.836-.717-.83-.718-.837-.837-.829-.716-.838-.837-.829-.838-.717-.836-.711-.956-.717-.837-.598-.956-.71-.957-.596-.955-.592-.957-.598-1.076-.597-.956-.47-1.076-.48-1.076-.477-1.076-.472-1.075-.358-.956-.479-1.077-.239-1.076-.352-1.075-.238-1.195-.359-1.077-.239-1.195-.12-1.076-.24-1.196-.117-1.074-.121-1.196-.112-1.196-.119-1.195V500.217l.119-1.315v-1.195l.112-1.196.12-1.314.24-1.188.118-1.196.239-1.076.359-1.195.24-1.196.35-1.076.359-1.195.359-1.076.478-1.196.472-1.074.478-1.076.478-1.076.471-1.076.597-1.076.598-.956.592-.958.596-.956.598-.956.71-.956.717-.956.711-.956.717-.838.829-.836.718-.838.83-.834.836-.839.83-.716.956-.837.83-.718.95-.717.956-.597.949-.718.957-.597.948-.597 1.07-.599 1.076-.597 1.068-.598 1.069-.478 1.075-.478 1.189-.598.949-.358 1.188-.36 1.078-.477 1.068-.24 1.068-.359 1.194-.238 1.07-.359 1.188-.239 1.189-.12 1.195-.238 1.189-.12 1.187-.119 1.189-.12 1.196-.12h5.111l1.316.12 1.308.12h1.188l1.188.119 1.308.24 1.076.118 1.188.24 1.189.239 1.075.239 1.068.238 1.07.24 1.076.359 1.068.239.95.358 1.076.359 1.069.477 1.068.479 1.076.479 1.069.597 1.068.479.958.597 1.068.597.949.598 1.076.598.949.716.95.599.956.717.949.718.956.836.949.717-.717.957-.829.836-.718.956-.829.956-.717.958-.711.836-.837.956-.71.956-.717.838-.831.956-.716.956-.83.956-.718.838-.709.956-.836.956-.712.956-.836.837-.711.956-.956-.717-.949-.836-.956-.599-.949-.717-.95-.598-.956-.598-.95-.596-1.068-.599-.956-.477-.95-.479-.956-.359-1.069-.358-1.068-.359-1.076-.239-1.188-.24-1.188-.238-1.189-.119-1.308-.12-1.315-.119h-2.496l-1.188.119-1.076.12-1.188.239-1.069.24-1.076.357-1.068.359-1.07.478-1.069.478-.956.597-.948.599-.957.598-.83.716-.837.718-.829.717-.718.836-.829.837-.717.956-.592.838-.598.956-.589 1.076-.599.956-.477 1.076-.359 1.076-.472 1.076-.358 1.194-.239 1.19-.239 1.074-.24 1.316-.118 1.195-.112 1.195v2.75l.112 1.195.118 1.076.12 1.196.239 1.075.24 1.077.239 1.075.358 1.076.352.956.479 1.194.477 1.078.591 1.076.597.956.598.956.71.957.718.836.829.837.719.836.828.718.957.717.949.717.948.598.956.597 1.071.479 1.068.478 1.075.478 1.189.358 1.188.359 1.196.24 1.188.239 1.188.118 1.308.12H143.149l1.316-.12 1.308-.118 1.188-.12 1.188-.24 1.196-.239 1.188-.357 1.068-.24 1.07-.478.956-.478 1.068-.479.836-.477.951-.599v-10.877h-17.376V494.247H178.378V533.09l-.829.716ZM139.274 261.037h51.578v-39.896h-51.578v-81.448h53.631V99.797h-97.43V387.73h98.246v-39.897h-54.447v-86.797ZM508.708 269.679v64.992c0 11.519-5.324 16.863-16.371 16.863h-8.192c-11.46 0-16.784-5.344-16.784-16.863V152.855c0-11.517 5.324-16.861 16.784-16.861h7.37c11.053 0 16.377 5.344 16.377 16.861v56.359h42.977v-58.827c0-35.782-17.193-53.06-52.8-53.06h-21.292c-35.608 0-53.216 17.686-53.216 53.475v185.923c0 35.79 17.608 53.474 53.216 53.474h21.699c35.616 0 53.215-17.684 53.215-53.474v-67.046h-42.983ZM356.608 387.732h43.806V99.796h-43.806v287.936ZM293.049 227.722c0 11.518-5.316 16.869-16.369 16.869h-18.015V138.463h18.015c11.053 0 16.369 5.345 16.369 16.861v72.398Zm-9.414-127.926h-68.77v287.936h43.8V283.25h24.97c35.614 0 53.214-17.684 53.214-53.467v-76.512c0-35.789-17.6-53.475-53.214-53.475Z"/><path fill="#fff" fill-rule="evenodd" d="M198.805 648.083h250.739l-127.982 42.205-122.757-42.205Z" clip-rule="evenodd"/></g></g><defs><clipPath id="a"><path fill="#fff" d="M0 0h647.167v750.977H0z"/></clipPath></defs></svg>
