<svg xmlns="http://www.w3.org/2000/svg" fill="none" viewBox="0 0 32768 32768"><g clip-path="url(#a)"><path fill="#fff" fill-rule="evenodd" d="M22.118 15985.9L7216.9 18920.6c899.87-516.7 1942.98-812.2 3055.1-812.2 195.3 0 388.4 9.2 579 27l5199.4-7401.6v-5.2c0-2308.07 935.7-4397.72 2448.4-5910.42 1512.7-1512.7 3602.3-2448.36 5910.4-2448.36 2308.1 0 4397.7 935.66 5910.4 2448.36 1512.7 1512.7 2448.4 3602.45 2448.4 5910.42 0 2308.1-935.7 4397.7-2448.4 5910.4-1512.7 1512.8-3602.3 2448.4-5910.4 2448.4-29.4 0-58.7-.3-88-.6l-7938.3 5814.7c-150.8 1437.9-797.5 2728.3-1766 3696.8-1112 1112-2648.2 1799.9-4345 1799.9-1696.83 0-3232.93-687.9-4345.05-1799.9-811.69-811.7-1397.39-1849.4-1654.55-3010.6L-.098 23878.7l22.118-7892.8h.098zm9372.412 3823l1903.87 776.5c3934.2 1604.7 2182.3 7909.5-2651.96 6751.8l-2369.63-947.9c211.16 394.1 478.75 753.3 792.24 1066.8 819.56 819.6 1952.02 1326.6 3202.85 1326.6 1250.8 0 2383.3-507 3202.8-1326.6 819.6-819.5 1326.6-1952 1326.6-3202.8 0-1250.8-507-2383.3-1326.6-3202.9-819.5-819.5-1951.9-1326.5-3202.8-1326.5-300.23 0-593.57 29.3-877.37 85.1v-.1zM24379.1 6582.05c2314.2 0 4190.1 1876.03 4190.1 4190.15 0 2314.1-1876 4190.1-4190.1 4190.1-2314.2 0-4190.1-1876-4190.1-4190.1 0-2314.21 1875.9-4190.15 4190.1-4190.15zm3903.6 273.09c-991.2-991.2-2360.8-1604.32-3873.6-1604.32-1512.8 0-2882.3 613.12-3873.6 1604.32-991.2 991.2-1604.3 2360.77-1604.3 3873.56 0 1512.8 613.1 2882.3 1604.3 3873.6 991.2 991.2 2360.8 1604.3 3873.6 1604.3 1512.8 0 2882.4-613.1 3873.6-1604.3 991.2-991.2 1604.3-2360.8 1604.3-3873.6 0-1512.79-613.1-2882.36-1604.3-3873.56z" clip-rule="evenodd"/></g><defs><clipPath id="a"><path fill="#fff" d="M0 0h333333v333333H0z" transform="scale(.0983)"/></clipPath></defs></svg>