<svg width="731" height="109" viewBox="0 0 731 109" fill="none" xmlns="http://www.w3.org/2000/svg">
<path d="M84.4961 69.3506L96.0752 6.04688H120.204L98.7793 107H73.541L60.0205 49.4512L46.7773 107H21.6084L0.114258 6.04688H24.3125L35.8916 69.3506L49.7588 6.04688H70.4209L84.4961 69.3506ZM153.277 107H129.842V31.9785H153.277V107ZM128.455 12.6338C128.455 9.30566 129.657 6.57845 132.061 4.45215C134.464 2.32585 137.584 1.2627 141.421 1.2627C145.257 1.2627 148.378 2.32585 150.781 4.45215C153.185 6.57845 154.387 9.30566 154.387 12.6338C154.387 15.9619 153.185 18.6891 150.781 20.8154C148.378 22.9417 145.257 24.0049 141.421 24.0049C137.584 24.0049 134.464 22.9417 132.061 20.8154C129.657 18.6891 128.455 15.9619 128.455 12.6338ZM194.948 13.3271V31.9785H207.29V48.2031H194.948V82.5244C194.948 85.3441 195.457 87.3086 196.474 88.418C197.491 89.5273 199.501 90.082 202.506 90.082C204.817 90.082 206.758 89.9434 208.33 89.666V106.376C204.124 107.716 199.732 108.387 195.156 108.387C187.113 108.387 181.174 106.492 177.337 102.701C173.5 98.9108 171.582 93.1559 171.582 85.4365V48.2031H162.014V31.9785H171.582V13.3271H194.948ZM248.268 90.3594C251.549 90.3594 254.092 89.4811 255.895 87.7246C257.697 85.9219 258.576 83.4258 258.529 80.2363H280.439C280.439 88.4642 277.481 95.2129 271.564 100.482C265.694 105.752 258.113 108.387 248.822 108.387C237.913 108.387 229.316 104.966 223.029 98.125C216.743 91.2839 213.6 81.8079 213.6 69.6973V68.7266C213.6 61.1458 214.986 54.4665 217.76 48.6885C220.579 42.8643 224.624 38.4036 229.894 35.3066C235.163 32.1634 241.403 30.5918 248.614 30.5918C258.368 30.5918 266.11 33.2959 271.842 38.7041C277.574 44.1123 280.439 51.4388 280.439 60.6836H258.529C258.529 56.8008 257.582 53.8193 255.687 51.7393C253.791 49.6592 251.249 48.6191 248.06 48.6191C242.004 48.6191 238.468 52.4788 237.451 60.1982C237.128 62.6481 236.966 66.0225 236.966 70.3213C236.966 77.8558 237.867 83.0791 239.67 85.9912C241.473 88.9033 244.339 90.3594 248.268 90.3594ZM313.166 40.0215C318.158 33.735 324.537 30.5918 332.303 30.5918C340.577 30.5918 346.817 33.0417 351.023 37.9414C355.23 42.8411 357.379 50.0752 357.472 59.6436V107H334.036V60.1982C334.036 56.223 333.227 53.3109 331.609 51.4619C329.992 49.5667 327.241 48.6191 323.358 48.6191C318.551 48.6191 315.154 50.1445 313.166 53.1953V107H289.8V0.5H313.166V40.0215Z" fill="#C59DFF"/>
<path d="M450.798 24.8369H420.498V107H396.161V24.8369H366.416V6.04688H450.798V24.8369ZM500.858 53.126L493.162 52.5713C485.812 52.5713 481.098 54.8825 479.018 59.5049V107H455.651V31.9785H477.562L478.324 41.6162C482.253 34.2666 487.731 30.5918 494.757 30.5918C497.253 30.5918 499.425 30.8691 501.274 31.4238L500.858 53.126ZM549.463 107C548.631 105.475 547.891 103.233 547.244 100.274C542.945 105.683 536.936 108.387 529.217 108.387C522.145 108.387 516.135 106.26 511.189 102.008C506.243 97.709 503.771 92.3239 503.771 85.8525C503.771 77.7171 506.775 71.5693 512.784 67.4092C518.793 63.249 527.53 61.1689 538.993 61.1689H546.204V57.2168C546.204 50.3294 543.223 46.8857 537.26 46.8857C531.713 46.8857 528.939 49.613 528.939 55.0674H505.573C505.573 47.8102 508.647 41.9167 514.795 37.3867C520.989 32.8568 528.87 30.5918 538.438 30.5918C548.007 30.5918 555.564 32.9261 561.111 37.5947C566.658 42.2633 569.501 48.6654 569.64 56.8008V90.0127C569.732 96.9001 570.795 102.17 572.829 105.821V107H549.463ZM534.833 91.7461C537.745 91.7461 540.149 91.1221 542.044 89.874C543.985 88.626 545.372 87.2161 546.204 85.6445V73.6494H539.409C531.274 73.6494 527.206 77.3011 527.206 84.6045C527.206 86.7308 527.923 88.4642 529.355 89.8047C530.788 91.099 532.614 91.7461 534.833 91.7461ZM579.693 68.9346C579.693 57.055 582.259 47.6947 587.39 40.8535C592.521 34.0124 599.685 30.5918 608.884 30.5918C615.586 30.5918 621.226 33.2266 625.802 38.4961V0.5H649.237V107H628.229L627.05 98.957C622.243 105.243 616.141 108.387 608.745 108.387C599.824 108.387 592.752 104.966 587.528 98.125C582.305 91.2839 579.693 81.5537 579.693 68.9346ZM603.06 70.3906C603.06 83.7031 606.942 90.3594 614.708 90.3594C619.885 90.3594 623.583 88.1868 625.802 83.8418V55.2754C623.675 50.8379 620.024 48.6191 614.847 48.6191C607.636 48.6191 603.73 54.4434 603.129 66.0918L603.06 70.3906ZM698.812 108.387C687.303 108.387 677.989 104.966 670.87 98.125C663.752 91.2376 660.192 82.2933 660.192 71.292V69.3506C660.192 61.6774 661.602 54.9056 664.422 49.0352C667.288 43.1647 671.448 38.6348 676.902 35.4453C682.357 32.2096 688.828 30.5918 696.316 30.5918C706.855 30.5918 715.176 33.8737 721.277 40.4375C727.379 46.9551 730.43 56.0612 730.43 67.7559V76.8389H683.975C684.807 81.0452 686.632 84.3503 689.452 86.7539C692.272 89.1576 695.924 90.3594 700.407 90.3594C707.803 90.3594 713.581 87.7708 717.741 82.5938L728.419 95.2129C725.507 99.2344 721.37 102.447 716.008 104.851C710.692 107.208 704.96 108.387 698.812 108.387ZM696.178 48.6191C689.337 48.6191 685.269 53.1491 683.975 62.209H707.549V60.4062C707.641 56.6621 706.694 53.7731 704.706 51.7393C702.718 49.6592 699.876 48.6191 696.178 48.6191Z" fill="white"/>
</svg>
